<svg width="32" height="32" viewBox="0 0 32 32" fill="none" xmlns="http://www.w3.org/2000/svg">
  <!-- Background gradient circle -->
  <defs>
    <linearGradient id="bgGradient" x1="0%" y1="0%" x2="100%" y2="100%">
      <stop offset="0%" style="stop-color:#3B82F6;stop-opacity:1" />
      <stop offset="100%" style="stop-color:#1D4ED8;stop-opacity:1" />
    </linearGradient>
    <linearGradient id="shapeGradient" x1="0%" y1="0%" x2="100%" y2="100%">
      <stop offset="0%" style="stop-color:#FFFFFF;stop-opacity:1" />
      <stop offset="100%" style="stop-color:#F3F4F6;stop-opacity:1" />
    </linearGradient>
  </defs>
  
  <!-- Background circle -->
  <circle cx="16" cy="16" r="16" fill="url(#bgGradient)"/>
  
  <!-- Abstract productivity shapes -->
  <!-- Main diamond shape (inspired by Vue's diamond) -->
  <path d="M16 6L22 16L16 26L10 16L16 6Z" fill="url(#shapeGradient)" opacity="0.9"/>
  
  <!-- Inner geometric elements representing productivity -->
  <!-- Central dot -->
  <circle cx="16" cy="16" r="2" fill="#3B82F6"/>
  
  <!-- Four small triangles around the center (representing power/energy) -->
  <path d="M16 8L18 12L14 12L16 8Z" fill="#FFFFFF" opacity="0.8"/>
  <path d="M16 24L18 20L14 20L16 24Z" fill="#FFFFFF" opacity="0.8"/>
  <path d="M8 16L12 18L12 14L8 16Z" fill="#FFFFFF" opacity="0.8"/>
  <path d="M24 16L20 18L20 14L24 16Z" fill="#FFFFFF" opacity="0.8"/>
  
  <!-- Subtle accent lines (representing progress/productivity) -->
  <path d="M12 10L20 10" stroke="#FFFFFF" stroke-width="1" opacity="0.6" stroke-linecap="round"/>
  <path d="M12 22L20 22" stroke="#FFFFFF" stroke-width="1" opacity="0.6" stroke-linecap="round"/>
  <path d="M10 12L10 20" stroke="#FFFFFF" stroke-width="1" opacity="0.6" stroke-linecap="round"/>
  <path d="M22 12L22 20" stroke="#FFFFFF" stroke-width="1" opacity="0.6" stroke-linecap="round"/>
</svg> 